<?xml version="1.0" encoding="UTF-8"?>
<svg width="139px" height="128px" viewBox="0 0 139 128" version="1.1" xmlns="http://www.w3.org/2000/svg" xmlns:xlink="http://www.w3.org/1999/xlink">
    <!-- Generator: Sketch 48.2 (47327) - http://www.bohemiancoding.com/sketch -->
    <title>Group 2</title>
    <desc>Created with Sketch.</desc>
    <defs></defs>
    <g id="Page-1" stroke="none" stroke-width="1" fill="none" fill-rule="evenodd">
        <g id="Group-2" fill="#FFFFFF">
            <path d="M79.5136756,46.0913871 C77.2613801,38.1279139 74.2650677,32.3564934 70.5246485,28.7769524 C66.7842293,25.1974114 61.9780638,23.4076678 56.1060078,23.4076678 C51.681856,23.4076678 47.7605076,24.4734702 44.3418449,26.6051069 C40.9231821,28.7367437 38.0274171,31.5721802 35.654463,35.1115017 C33.2815089,38.6508231 31.4917652,42.7531568 30.2851784,47.4186259 C29.0785916,52.0840951 28.4753072,56.950589 28.4753072,62.0182538 C28.4753072,67.3272359 29.098701,72.535591 30.3455074,77.6434753 C31.5923139,82.7513596 33.402167,87.2759924 35.7751211,91.2175095 C38.1480752,95.1590265 41.0036213,98.3363242 44.3418449,100.749498 C47.6800685,103.162672 51.4405411,104.36924 55.6233755,104.36924 C58.8409404,104.36924 61.7568149,103.62519 64.3710864,102.137066 C66.9853579,100.648942 69.2778385,98.6379941 71.248597,96.1041617 C73.2193555,93.5703294 74.8482233,90.6343454 76.1352493,87.2961218 C77.4222753,83.9578982 78.4277492,80.3985204 79.1517013,76.6178816 L108.712931,76.6178816 C107.747662,84.5813548 105.817152,91.7001104 102.921343,97.974362 C100.025535,104.248614 96.2851718,109.597735 91.7001418,114.021887 C87.1151118,118.446039 81.7257714,121.824431 75.5319589,124.157166 C69.3381464,126.4899 62.4607046,127.65625 54.899427,127.65625 C48.5447363,127.65625 42.7934252,126.791542 37.6453214,125.062101 C32.4972175,123.33266 27.8921468,120.959742 23.8299711,117.943274 C19.7677953,114.926807 16.2486365,111.327211 13.2723889,107.144376 C10.2961414,102.961542 7.82267546,98.436909 5.85191694,93.570342 C3.88115843,88.7037751 2.41316645,83.5959674 1.44789698,78.2467657 C0.482627499,72.897564 0,67.4881141 0,62.0182538 C0,53.009072 1.3473351,44.7038571 4.04204572,37.10236 C6.73675635,29.5008629 10.5374479,22.9451727 15.4442344,17.4350927 C20.3510209,11.9250128 26.2632078,7.64169376 33.1809724,4.58500709 C40.0987369,1.52832041 47.8207769,0 56.347324,0 C63.8281624,0 70.5045095,1.18645927 76.3765655,3.5594134 C82.2486214,5.93236753 87.3564291,9.16999367 91.7001418,13.2723889 C96.0438544,17.3747842 99.6233417,22.2412782 102.438711,27.8720168 C105.25408,33.5027554 107.345466,39.5758181 108.712931,46.0913871 L79.5136756,46.0913871 Z" id="c"></path>
            <path d="M58,55 L128,55 C134.075132,55 139,59.9248678 139,66 L139,68 L58,68 L58,55 Z" id="Rectangle"></path>
        </g>
    </g>
</svg>